<mxfile host="app.diagrams.net" modified="2021-06-04T16:24:51.840Z" agent="5.0 (Windows NT 10.0; Win64; x64) AppleWebKit/537.36 (KHTML, like Gecko) Chrome/88.0.4324.182 Safari/537.36" etag="NUs8JCDoW67WNIXXin79" version="14.7.5" type="github">
  <diagram id="8QZhaxeqP6wqKu-s7FZ3" name="Page-1">
    <mxGraphModel dx="1145" dy="745" grid="1" gridSize="10" guides="1" tooltips="1" connect="1" arrows="1" fold="1" page="1" pageScale="1" pageWidth="3300" pageHeight="4681" math="0" shadow="0">
      <root>
        <mxCell id="0" />
        <mxCell id="1" parent="0" />
        <mxCell id="knAOEHhSgyKZdyAJ0B1Y-3" value="" style="edgeStyle=orthogonalEdgeStyle;rounded=0;orthogonalLoop=1;jettySize=auto;html=1;" edge="1" parent="1" source="knAOEHhSgyKZdyAJ0B1Y-1" target="knAOEHhSgyKZdyAJ0B1Y-2">
          <mxGeometry relative="1" as="geometry" />
        </mxCell>
        <mxCell id="knAOEHhSgyKZdyAJ0B1Y-1" value="FUNCTION select_date(header, user_data)" style="shape=process;whiteSpace=wrap;html=1;backgroundOutline=1;" vertex="1" parent="1">
          <mxGeometry x="520" y="120" width="290" height="60" as="geometry" />
        </mxCell>
        <mxCell id="knAOEHhSgyKZdyAJ0B1Y-5" value="" style="edgeStyle=orthogonalEdgeStyle;rounded=0;orthogonalLoop=1;jettySize=auto;html=1;" edge="1" parent="1" source="knAOEHhSgyKZdyAJ0B1Y-2" target="knAOEHhSgyKZdyAJ0B1Y-4">
          <mxGeometry relative="1" as="geometry" />
        </mxCell>
        <mxCell id="knAOEHhSgyKZdyAJ0B1Y-2" value="title = user_data[2] + &quot;, select your time here&quot;" style="rounded=1;whiteSpace=wrap;html=1;" vertex="1" parent="1">
          <mxGeometry x="550" y="230" width="230" height="40" as="geometry" />
        </mxCell>
        <mxCell id="knAOEHhSgyKZdyAJ0B1Y-7" value="" style="edgeStyle=orthogonalEdgeStyle;rounded=0;orthogonalLoop=1;jettySize=auto;html=1;" edge="1" parent="1" source="knAOEHhSgyKZdyAJ0B1Y-4" target="knAOEHhSgyKZdyAJ0B1Y-6">
          <mxGeometry relative="1" as="geometry" />
        </mxCell>
        <mxCell id="knAOEHhSgyKZdyAJ0B1Y-4" value="i = 0" style="rounded=1;whiteSpace=wrap;html=1;" vertex="1" parent="1">
          <mxGeometry x="550" y="320" width="230" height="40" as="geometry" />
        </mxCell>
        <mxCell id="knAOEHhSgyKZdyAJ0B1Y-9" value="" style="edgeStyle=orthogonalEdgeStyle;rounded=0;orthogonalLoop=1;jettySize=auto;html=1;" edge="1" parent="1" source="knAOEHhSgyKZdyAJ0B1Y-6" target="knAOEHhSgyKZdyAJ0B1Y-8">
          <mxGeometry relative="1" as="geometry" />
        </mxCell>
        <mxCell id="knAOEHhSgyKZdyAJ0B1Y-6" value="PRINT(header)" style="rounded=1;whiteSpace=wrap;html=1;" vertex="1" parent="1">
          <mxGeometry x="550" y="410" width="230" height="40" as="geometry" />
        </mxCell>
        <mxCell id="knAOEHhSgyKZdyAJ0B1Y-11" value="" style="edgeStyle=orthogonalEdgeStyle;rounded=0;orthogonalLoop=1;jettySize=auto;html=1;" edge="1" parent="1" source="knAOEHhSgyKZdyAJ0B1Y-8" target="knAOEHhSgyKZdyAJ0B1Y-10">
          <mxGeometry relative="1" as="geometry" />
        </mxCell>
        <mxCell id="knAOEHhSgyKZdyAJ0B1Y-8" value="PRINT(&quot;Please enter date IN DD-MM-YYYY&quot;)" style="rounded=1;whiteSpace=wrap;html=1;" vertex="1" parent="1">
          <mxGeometry x="550" y="500" width="230" height="40" as="geometry" />
        </mxCell>
        <mxCell id="knAOEHhSgyKZdyAJ0B1Y-13" value="" style="edgeStyle=orthogonalEdgeStyle;rounded=0;orthogonalLoop=1;jettySize=auto;html=1;" edge="1" parent="1" source="knAOEHhSgyKZdyAJ0B1Y-10" target="knAOEHhSgyKZdyAJ0B1Y-12">
          <mxGeometry relative="1" as="geometry" />
        </mxCell>
        <mxCell id="knAOEHhSgyKZdyAJ0B1Y-10" value="PRINT(&quot;Date: &quot;)" style="rounded=1;whiteSpace=wrap;html=1;" vertex="1" parent="1">
          <mxGeometry x="550" y="600" width="230" height="40" as="geometry" />
        </mxCell>
        <mxCell id="knAOEHhSgyKZdyAJ0B1Y-15" value="" style="edgeStyle=orthogonalEdgeStyle;rounded=0;orthogonalLoop=1;jettySize=auto;html=1;" edge="1" parent="1" source="knAOEHhSgyKZdyAJ0B1Y-12" target="knAOEHhSgyKZdyAJ0B1Y-14">
          <mxGeometry relative="1" as="geometry" />
        </mxCell>
        <mxCell id="knAOEHhSgyKZdyAJ0B1Y-12" value="READ temp" style="shape=parallelogram;perimeter=parallelogramPerimeter;whiteSpace=wrap;html=1;fixedSize=1;" vertex="1" parent="1">
          <mxGeometry x="550" y="690" width="229" height="50" as="geometry" />
        </mxCell>
        <mxCell id="knAOEHhSgyKZdyAJ0B1Y-17" value="" style="edgeStyle=orthogonalEdgeStyle;rounded=0;orthogonalLoop=1;jettySize=auto;html=1;" edge="1" parent="1" source="knAOEHhSgyKZdyAJ0B1Y-14" target="knAOEHhSgyKZdyAJ0B1Y-16">
          <mxGeometry relative="1" as="geometry" />
        </mxCell>
        <mxCell id="knAOEHhSgyKZdyAJ0B1Y-23" value="" style="edgeStyle=orthogonalEdgeStyle;rounded=0;orthogonalLoop=1;jettySize=auto;html=1;" edge="1" parent="1" source="knAOEHhSgyKZdyAJ0B1Y-14" target="knAOEHhSgyKZdyAJ0B1Y-19">
          <mxGeometry relative="1" as="geometry" />
        </mxCell>
        <mxCell id="knAOEHhSgyKZdyAJ0B1Y-14" value="Value Error" style="rhombus;whiteSpace=wrap;html=1;" vertex="1" parent="1">
          <mxGeometry x="610" y="810" width="110" height="100" as="geometry" />
        </mxCell>
        <mxCell id="knAOEHhSgyKZdyAJ0B1Y-16" value="PRINT(&quot;Error! Incorrect date format.&quot;)" style="rounded=1;whiteSpace=wrap;html=1;" vertex="1" parent="1">
          <mxGeometry x="800" y="840" width="145" height="40" as="geometry" />
        </mxCell>
        <mxCell id="knAOEHhSgyKZdyAJ0B1Y-24" value="" style="edgeStyle=orthogonalEdgeStyle;rounded=0;orthogonalLoop=1;jettySize=auto;html=1;" edge="1" parent="1" source="knAOEHhSgyKZdyAJ0B1Y-19" target="knAOEHhSgyKZdyAJ0B1Y-21">
          <mxGeometry relative="1" as="geometry" />
        </mxCell>
        <mxCell id="knAOEHhSgyKZdyAJ0B1Y-19" value="datetime.datetime.strptime(temp, &quot;%d-%m-%Y&quot;)" style="rounded=1;whiteSpace=wrap;html=1;" vertex="1" parent="1">
          <mxGeometry x="550" y="960" width="230" height="40" as="geometry" />
        </mxCell>
        <mxCell id="knAOEHhSgyKZdyAJ0B1Y-21" value="BREAK" style="rounded=1;whiteSpace=wrap;html=1;" vertex="1" parent="1">
          <mxGeometry x="592.5" y="1050" width="145" height="40" as="geometry" />
        </mxCell>
        <mxCell id="knAOEHhSgyKZdyAJ0B1Y-25" value="True" style="text;html=1;align=center;verticalAlign=middle;resizable=0;points=[];autosize=1;strokeColor=none;" vertex="1" parent="1">
          <mxGeometry x="720" y="840" width="40" height="20" as="geometry" />
        </mxCell>
        <mxCell id="knAOEHhSgyKZdyAJ0B1Y-27" value="False" style="text;html=1;align=center;verticalAlign=middle;resizable=0;points=[];autosize=1;strokeColor=none;" vertex="1" parent="1">
          <mxGeometry x="670" y="910" width="40" height="20" as="geometry" />
        </mxCell>
        <mxCell id="knAOEHhSgyKZdyAJ0B1Y-42" value="" style="edgeStyle=orthogonalEdgeStyle;rounded=0;orthogonalLoop=1;jettySize=auto;html=1;" edge="1" parent="1" source="knAOEHhSgyKZdyAJ0B1Y-29" target="knAOEHhSgyKZdyAJ0B1Y-35">
          <mxGeometry relative="1" as="geometry" />
        </mxCell>
        <mxCell id="knAOEHhSgyKZdyAJ0B1Y-29" value="READ temp" style="shape=parallelogram;perimeter=parallelogramPerimeter;whiteSpace=wrap;html=1;fixedSize=1;" vertex="1" parent="1">
          <mxGeometry x="280" y="1160" width="229" height="40" as="geometry" />
        </mxCell>
        <mxCell id="knAOEHhSgyKZdyAJ0B1Y-43" style="edgeStyle=orthogonalEdgeStyle;rounded=0;orthogonalLoop=1;jettySize=auto;html=1;entryX=1;entryY=0.5;entryDx=0;entryDy=0;" edge="1" parent="1" source="knAOEHhSgyKZdyAJ0B1Y-32" target="knAOEHhSgyKZdyAJ0B1Y-44">
          <mxGeometry relative="1" as="geometry">
            <mxPoint x="520" y="1660" as="targetPoint" />
            <Array as="points">
              <mxPoint x="520" y="1460" />
              <mxPoint x="520" y="1690" />
            </Array>
          </mxGeometry>
        </mxCell>
        <mxCell id="knAOEHhSgyKZdyAJ0B1Y-46" value="" style="edgeStyle=orthogonalEdgeStyle;rounded=0;orthogonalLoop=1;jettySize=auto;html=1;" edge="1" parent="1" source="knAOEHhSgyKZdyAJ0B1Y-32" target="knAOEHhSgyKZdyAJ0B1Y-33">
          <mxGeometry relative="1" as="geometry" />
        </mxCell>
        <mxCell id="knAOEHhSgyKZdyAJ0B1Y-32" value="Value Error" style="rhombus;whiteSpace=wrap;html=1;" vertex="1" parent="1">
          <mxGeometry x="339.5" y="1410" width="110" height="100" as="geometry" />
        </mxCell>
        <mxCell id="knAOEHhSgyKZdyAJ0B1Y-33" value="PRINT(&quot;Error! Incorrect date format.&quot;)" style="rounded=1;whiteSpace=wrap;html=1;" vertex="1" parent="1">
          <mxGeometry x="322" y="1560" width="145" height="40" as="geometry" />
        </mxCell>
        <mxCell id="knAOEHhSgyKZdyAJ0B1Y-41" value="" style="edgeStyle=orthogonalEdgeStyle;rounded=0;orthogonalLoop=1;jettySize=auto;html=1;" edge="1" parent="1" source="knAOEHhSgyKZdyAJ0B1Y-35" target="knAOEHhSgyKZdyAJ0B1Y-36">
          <mxGeometry relative="1" as="geometry" />
        </mxCell>
        <mxCell id="knAOEHhSgyKZdyAJ0B1Y-35" value="datetime.datetime.strptime(temp, &quot;%d-%m-%Y&quot;)" style="rounded=1;whiteSpace=wrap;html=1;" vertex="1" parent="1">
          <mxGeometry x="279" y="1250" width="230" height="40" as="geometry" />
        </mxCell>
        <mxCell id="knAOEHhSgyKZdyAJ0B1Y-40" value="" style="edgeStyle=orthogonalEdgeStyle;rounded=0;orthogonalLoop=1;jettySize=auto;html=1;" edge="1" parent="1" source="knAOEHhSgyKZdyAJ0B1Y-36" target="knAOEHhSgyKZdyAJ0B1Y-32">
          <mxGeometry relative="1" as="geometry" />
        </mxCell>
        <mxCell id="knAOEHhSgyKZdyAJ0B1Y-36" value="BREAK" style="rounded=1;whiteSpace=wrap;html=1;" vertex="1" parent="1">
          <mxGeometry x="322" y="1340" width="145" height="40" as="geometry" />
        </mxCell>
        <mxCell id="knAOEHhSgyKZdyAJ0B1Y-37" value="True" style="text;html=1;align=center;verticalAlign=middle;resizable=0;points=[];autosize=1;strokeColor=none;" vertex="1" parent="1">
          <mxGeometry x="409.5" y="1520" width="40" height="20" as="geometry" />
        </mxCell>
        <mxCell id="knAOEHhSgyKZdyAJ0B1Y-44" value="" style="ellipse;whiteSpace=wrap;html=1;aspect=fixed;" vertex="1" parent="1">
          <mxGeometry x="374.5" y="1670" width="40" height="40" as="geometry" />
        </mxCell>
        <mxCell id="knAOEHhSgyKZdyAJ0B1Y-47" value="False" style="text;html=1;align=center;verticalAlign=middle;resizable=0;points=[];autosize=1;strokeColor=none;" vertex="1" parent="1">
          <mxGeometry x="450" y="1440" width="40" height="20" as="geometry" />
        </mxCell>
      </root>
    </mxGraphModel>
  </diagram>
</mxfile>
